<?xml version="1.0" encoding="UTF-8" standalone="no"?>
<!-- Generator: Adobe Illustrator 18.0.0, SVG Export Plug-In . SVG Version: 6.00 Build 0)  -->

<svg
   xmlns:dc="http://purl.org/dc/elements/1.1/"
   xmlns:cc="http://creativecommons.org/ns#"
   xmlns:rdf="http://www.w3.org/1999/02/22-rdf-syntax-ns#"
   xmlns:svg="http://www.w3.org/2000/svg"
   xmlns="http://www.w3.org/2000/svg"
   xmlns:sodipodi="http://sodipodi.sourceforge.net/DTD/sodipodi-0.dtd"
   xmlns:inkscape="http://www.inkscape.org/namespaces/inkscape"
   version="1.1"
   x="0px"
   y="0px"
   width="420px"
   height="325px"
   viewBox="0 0 420 325"
   style="enable-background:new 0 0 420 325;"
   xml:space="preserve"
   id="svg38"
   sodipodi:docname="cd-icon-2-large DAY.svg"
   inkscape:version="0.92.2 (5c3e80d, 2017-08-06)"><metadata
     id="metadata44"><rdf:RDF><cc:Work
         rdf:about=""><dc:format>image/svg+xml</dc:format><dc:type
           rdf:resource="http://purl.org/dc/dcmitype/StillImage" /></cc:Work></rdf:RDF></metadata><defs
     id="defs42" /><sodipodi:namedview
     pagecolor="#ffffff"
     bordercolor="#666666"
     borderopacity="1"
     objecttolerance="10"
     gridtolerance="10"
     guidetolerance="10"
     inkscape:pageopacity="0"
     inkscape:pageshadow="2"
     inkscape:window-width="1600"
     inkscape:window-height="838"
     id="namedview40"
     showgrid="false"
     inkscape:zoom="1.9327585"
     inkscape:cx="210"
     inkscape:cy="193.2391"
     inkscape:window-x="-8"
     inkscape:window-y="-8"
     inkscape:window-maximized="1"
     inkscape:current-layer="svg38" /><style
     type="text/css"
     id="style2">
	.st0{fill:#3E253C;}
</style><g
     id="WEB_DESIGN"
     style="fill:#a793ac"><g
       id="g32"
       style="fill:#a793ac"><path
         class="st0"
         d="M255,285v-39h-90v39h37v4h-62v-4h21v-39H57c-3.3,0-6-2.7-6-6V43c0-3.3,2.7-6,6-6h151V0H0v325h208v-40H255z"
         id="path20"
         style="fill:#a793ac" /><path
         class="st0"
         d="M212,0v41H57c-1.1,0-2,0.9-2,2v197c0,1.1,0.9,2,2,2h306c1.1,0,2-0.9,2-2V43c0-1.1-0.9-2-2-2H221v-4h142    c3.3,0,6,2.7,6,6v197c0,3.3-2.7,6-6,6H259v39h21v4h-68v36h208V0H212z M352,55v152H68V55H352z"
         id="path28"
         style="fill:#a793ac" /></g></g><g
     id="APP_DESIGN" /><g
     id="ECOMMERCE" /><g
     id="WORDPRESS" /></svg>