<?xml version="1.0" encoding="UTF-8" standalone="no"?>
<!-- Generator: Adobe Illustrator 18.0.0, SVG Export Plug-In . SVG Version: 6.00 Build 0)  -->

<svg
   xmlns:dc="http://purl.org/dc/elements/1.1/"
   xmlns:cc="http://creativecommons.org/ns#"
   xmlns:rdf="http://www.w3.org/1999/02/22-rdf-syntax-ns#"
   xmlns:svg="http://www.w3.org/2000/svg"
   xmlns="http://www.w3.org/2000/svg"
   xmlns:sodipodi="http://sodipodi.sourceforge.net/DTD/sodipodi-0.dtd"
   xmlns:inkscape="http://www.inkscape.org/namespaces/inkscape"
   version="1.1"
   id="Layer_1"
   x="0px"
   y="0px"
   width="56px"
   height="50px"
   viewBox="0 0 56 50"
   enable-background="new 0 0 56 50"
   xml:space="preserve"
   sodipodi:docname="cd-icon-2-small (2).svg"
   inkscape:version="0.92.2 (5c3e80d, 2017-08-06)"><metadata
     id="metadata19"><rdf:RDF><cc:Work
         rdf:about=""><dc:format>image/svg+xml</dc:format><dc:type
           rdf:resource="http://purl.org/dc/dcmitype/StillImage" /></cc:Work></rdf:RDF></metadata><defs
     id="defs17" /><sodipodi:namedview
     pagecolor="#ffffff"
     bordercolor="#666666"
     borderopacity="1"
     objecttolerance="10"
     gridtolerance="10"
     guidetolerance="10"
     inkscape:pageopacity="0"
     inkscape:pageshadow="2"
     inkscape:window-width="1600"
     inkscape:window-height="838"
     id="namedview15"
     showgrid="false"
     inkscape:zoom="13.350176"
     inkscape:cx="25.70598"
     inkscape:cy="30.599375"
     inkscape:window-x="-8"
     inkscape:window-y="-8"
     inkscape:window-maximized="1"
     inkscape:current-layer="Layer_1" /><g
     id="g12"
     style="fill:#9d93ac"><path
       d="M28,2C15.3,2,5,12.3,5,25s10.3,23,23,23s23-10.3,23-23S40.7,2,28,2z M43,30c0,1.1-0.9,2-2,2h-8v3h2v2H22v-2   h2v-3h-8c-1.1,0-2-0.9-2-2V14c0-1.1,0.9-2,2-2h25c1.1,0,2,0.9,2,2V30z"
       id="path4"
       style="fill:#9d93ac"
       fill="#3E243C" /><rect
       x="26"
       y="32"
       width="5"
       height="3"
       id="rect6"
       style="fill:#9d93ac"
       fill="#3E243C" /><path
       d="M0,0v50h56V0H0z M28,50C14.2,50,3,38.8,3,25S14.2,0,28,0s25,11.2,25,25S41.8,50,28,50z"
       id="path10"
       style="fill:#9d93ac"
       fill="#3E243C" /></g><path
     style="fill:#9d93ac;fill-opacity:1;stroke-width:0.21186441"
     d="m 16.158286,22.045244 v -7.944915 h 12.5 12.5 v 7.944915 7.944915 h -12.5 -12.5 z"
     id="path856"
     inkscape:connector-curvature="0" /><text
     xml:space="preserve"
     style="font-style:normal;font-weight:normal;font-size:40px;line-height:1.25;font-family:sans-serif;letter-spacing:0px;word-spacing:0px;fill:#000000;fill-opacity:1;stroke:none"
     x="23.894815"
     y="26.779331"
     id="text821"><tspan
       sodipodi:role="line"
       id="tspan819"
       x="23.894815"
       y="26.779331"
       style="font-style:normal;font-variant:normal;font-weight:normal;font-stretch:normal;font-size:13.33333302px;font-family:Elephant;-inkscape-font-specification:'Elephant, Normal';font-variant-ligatures:normal;font-variant-caps:normal;font-variant-numeric:normal;font-feature-settings:normal;text-align:start;writing-mode:lr-tb;text-anchor:start">2</tspan></text>
</svg>