<?xml version="1.0" encoding="UTF-8" standalone="no"?>
<!-- Generator: Adobe Illustrator 18.0.0, SVG Export Plug-In . SVG Version: 6.00 Build 0)  -->

<svg
   xmlns:dc="http://purl.org/dc/elements/1.1/"
   xmlns:cc="http://creativecommons.org/ns#"
   xmlns:rdf="http://www.w3.org/1999/02/22-rdf-syntax-ns#"
   xmlns:svg="http://www.w3.org/2000/svg"
   xmlns="http://www.w3.org/2000/svg"
   xmlns:sodipodi="http://sodipodi.sourceforge.net/DTD/sodipodi-0.dtd"
   xmlns:inkscape="http://www.inkscape.org/namespaces/inkscape"
   version="1.1"
   id="Layer_1"
   x="0px"
   y="0px"
   width="56px"
   height="50px"
   viewBox="0 0 56 50"
   enable-background="new 0 0 56 50"
   xml:space="preserve"
   sodipodi:docname="cd-icon-1-small.svg"
   inkscape:version="0.92.2 (5c3e80d, 2017-08-06)"><metadata
     id="metadata19"><rdf:RDF><cc:Work
         rdf:about=""><dc:format>image/svg+xml</dc:format><dc:type
           rdf:resource="http://purl.org/dc/dcmitype/StillImage" /></cc:Work></rdf:RDF></metadata><defs
     id="defs17" /><sodipodi:namedview
     pagecolor="#ffffff"
     bordercolor="#666666"
     borderopacity="1"
     objecttolerance="10"
     gridtolerance="10"
     guidetolerance="10"
     inkscape:pageopacity="0"
     inkscape:pageshadow="2"
     inkscape:window-width="1600"
     inkscape:window-height="838"
     id="namedview15"
     showgrid="false"
     inkscape:zoom="13.350176"
     inkscape:cx="23.345824"
     inkscape:cy="25.85885"
     inkscape:window-x="-8"
     inkscape:window-y="-8"
     inkscape:window-maximized="1"
     inkscape:current-layer="Layer_1" /><g
     id="g12"
     style="fill:#9d93ac"><path
       d="M28,2C15.3,2,5,12.3,5,25s10.3,23,23,23s23-10.3,23-23S40.7,2,28,2z M43,30c0,1.1-0.9,2-2,2h-8v3h2v2H22v-2   h2v-3h-8c-1.1,0-2-0.9-2-2V14c0-1.1,0.9-2,2-2h25c1.1,0,2,0.9,2,2V30z"
       id="path4"
       style="fill:#9d93ac"
       fill="#3E243C" /><rect
       x="26"
       y="32"
       width="5"
       height="3"
       id="rect6"
       style="fill:#9d93ac"
       fill="#3E243C" /><path
       d="M0,0v50h56V0H0z M28,50C14.2,50,3,38.8,3,25S14.2,0,28,0s25,11.2,25,25S41.8,50,28,50z"
       id="path10"
       style="fill:#9d93ac"
       fill="#3E243C" /></g><path
     style="fill:#9d93ac;fill-opacity:1;stroke-width:0.21186441"
     d="m 16.158286,22.045244 v -7.944915 h 12.5 12.5 v 7.944915 7.944915 h -12.5 -12.5 z"
     id="path856"
     inkscape:connector-curvature="0" /><g
     aria-label=" 1"
     style="font-style:normal;font-variant:normal;font-weight:normal;font-stretch:normal;font-size:40px;line-height:1.25;font-family:Elephant;-inkscape-font-specification:'Elephant, Normal';font-variant-ligatures:normal;font-variant-caps:normal;font-variant-numeric:normal;font-feature-settings:normal;text-align:start;letter-spacing:0px;word-spacing:0px;writing-mode:lr-tb;text-anchor:start;fill:#000000;fill-opacity:1;stroke:none"
     id="text866"><path
       d="m 30.996527,25.620148 0.02933,0.674667 q 0.044,0.484 0.205333,0.66 0.176,0.161333 0.454667,0.205333 0.278666,0.02933 0.469333,0.044 0.205333,0 0.44,0.01467 v 0.234667 h -6.922667 v -0.234667 q 0.161334,0 0.322667,0 0.176,-0.01467 0.572,-0.05867 0.410667,-0.05867 0.572,-0.234666 0.176,-0.190667 0.22,-0.66 l 0.02933,-0.674667 v -6.893334 l -0.02933,-0.674666 q -0.044,-0.454667 -0.22,-0.66 -0.161333,-0.22 -0.498667,-0.264 -0.322666,-0.044 -0.66,-0.05867 -0.337333,-0.02933 -0.484,-0.044 v -0.234667 h 5.5 z"
       style="font-style:normal;font-variant:normal;font-weight:normal;font-stretch:normal;font-size:14.66666698px;font-family:Elephant;-inkscape-font-specification:'Elephant, Normal';font-variant-ligatures:normal;font-variant-caps:normal;font-variant-numeric:normal;font-feature-settings:normal;text-align:start;writing-mode:lr-tb;text-anchor:start"
       id="path4521" /></g></svg>