<?xml version="1.0" encoding="UTF-8" standalone="no"?>
<!-- Generator: Adobe Illustrator 18.0.0, SVG Export Plug-In . SVG Version: 6.00 Build 0)  -->

<svg
   xmlns:dc="http://purl.org/dc/elements/1.1/"
   xmlns:cc="http://creativecommons.org/ns#"
   xmlns:rdf="http://www.w3.org/1999/02/22-rdf-syntax-ns#"
   xmlns:svg="http://www.w3.org/2000/svg"
   xmlns="http://www.w3.org/2000/svg"
   xmlns:sodipodi="http://sodipodi.sourceforge.net/DTD/sodipodi-0.dtd"
   xmlns:inkscape="http://www.inkscape.org/namespaces/inkscape"
   version="1.1"
   id="Layer_1"
   x="0px"
   y="0px"
   width="420px"
   height="1px"
   viewBox="0 0 420 1"
   enable-background="new 0 0 420 1"
   xml:space="preserve"
   sodipodi:docname="cd-pattern-large.svg"
   inkscape:version="0.92.2 (5c3e80d, 2017-08-06)"><metadata
     id="metadata14"><rdf:RDF><cc:Work
         rdf:about=""><dc:format>image/svg+xml</dc:format><dc:type
           rdf:resource="http://purl.org/dc/dcmitype/StillImage" /></cc:Work></rdf:RDF></metadata><defs
     id="defs12" /><sodipodi:namedview
     pagecolor="#ffffff"
     bordercolor="#666666"
     borderopacity="1"
     objecttolerance="10"
     gridtolerance="10"
     guidetolerance="10"
     inkscape:pageopacity="0"
     inkscape:pageshadow="2"
     inkscape:window-width="1600"
     inkscape:window-height="838"
     id="namedview10"
     showgrid="false"
     inkscape:zoom="30.924136"
     inkscape:cx="8.0954821"
     inkscape:cy="9.4513383"
     inkscape:window-x="-8"
     inkscape:window-y="-8"
     inkscape:window-maximized="1"
     inkscape:current-layer="Layer_1" /><g
     id="WEB_DESIGN"
     style="fill:#9d93ac"><g
       id="g6"
       style="fill:#9d93ac"><rect
         x="212"
         fill="#3E253C"
         width="208"
         height="1"
         id="rect2"
         style="fill:#9d93ac" /><rect
         fill="#3E253C"
         width="208"
         height="1"
         id="rect4"
         style="fill:#9d93ac" /></g></g><path
     style="fill:#9d93ac;fill-opacity:1;stroke-width:0.01143293"
     d="M 197.75419,0.49657012 V -7.622006e-4 h 5.12195 5.12195 V 0.49657012 0.99390244 h -5.12195 -5.12195 z"
     id="path815"
     inkscape:connector-curvature="0" /><path
     style="fill:#9d93ac;fill-opacity:1;stroke-width:0.01143293"
     d="M 211.99962,0.49657012 V -7.622006e-4 h 3.2298 3.2298 V 0.49657012 0.99390244 h -3.2298 -3.2298 z"
     id="path817"
     inkscape:connector-curvature="0" /><path
     style="fill:#9d93ac;fill-opacity:1;stroke-width:0.0323372"
     d="M 30.334277,0.51253368 V 0.02747567 H 59.615612 88.896947 V 0.51253368 0.99759169 H 59.615612 30.334277 Z"
     id="path818"
     inkscape:connector-curvature="0" /><path
     style="fill:#9d93ac;fill-opacity:1;stroke-width:0.0323372"
     d="M 85.835388,0.51253368 V 0.02747567 h 29.281332 29.28134 V 0.51253368 0.99759169 H 115.11672 85.835388 Z"
     id="path820"
     inkscape:connector-curvature="0" /><path
     style="fill:#9d93ac;fill-opacity:1;stroke-width:0.0323372"
     d="M 50.171342,0.51253368 V 0.02747567 H 79.452677 108.73401 V 0.51253368 0.99759169 H 79.452677 50.171342 Z"
     id="path822"
     inkscape:connector-curvature="0" /><path
     style="fill:#9d93ac;fill-opacity:1;stroke-width:0.0323372"
     d="M 243.44746,0.51253368 V 0.02747567 h 29.28134 29.28133 V 0.51253368 0.99759169 H 272.7288 243.44746 Z"
     id="path824"
     inkscape:connector-curvature="0" /><path
     style="fill:#9d93ac;fill-opacity:1;stroke-width:0.0323372"
     d="M 243.44746,0.51253368 V 0.02747567 h 29.28134 29.28133 V 0.51253368 0.99759169 H 272.7288 243.44746 Z"
     id="path826"
     inkscape:connector-curvature="0" /><path
     style="fill:#9d93ac;fill-opacity:1;stroke-width:0.0323372"
     d="M 243.44746,0.51253368 V 0.02747567 h 29.28134 29.28133 V 0.51253368 0.99759169 H 272.7288 243.44746 Z"
     id="path828"
     inkscape:connector-curvature="0" /><path
     style="fill:#9d93ac;fill-opacity:1;stroke-width:0.0323372"
     d="M 352.74051,0.51253368 V 0.02747567 h 29.28133 29.28134 v 0.48505801 0.48505801 h -29.28134 -29.28133 z"
     id="path830"
     inkscape:connector-curvature="0" /><path
     style="fill:#9d93ac;fill-opacity:1;stroke-width:0.0323372"
     d="M 388.40455,0.51253368 V 0.02747567 h 15.79672 15.79673 v 0.48505801 0.48505801 h -15.79673 -15.79672 z"
     id="path832"
     inkscape:connector-curvature="0" /><path
     style="fill:#9d93ac;fill-opacity:1;stroke-width:0.0323372"
     d="M 388.40455,0.51253368 V 0.02747567 h 15.79672 15.79673 v 0.48505801 0.48505801 h -15.79673 -15.79672 z"
     id="path834"
     inkscape:connector-curvature="0" /><path
     style="fill:#9d93ac;fill-opacity:1;stroke-width:0.0323372"
     d="M 388.40455,0.51253368 V 0.02747567 h 15.79672 15.79673 v 0.48505801 0.48505801 h -15.79673 -15.79672 z"
     id="path836"
     inkscape:connector-curvature="0" /><path
     style="fill:#9d93ac;fill-opacity:1;stroke-width:0.0323372"
     d="M 388.40455,0.51253368 V 0.02747567 h 15.79672 15.79673 v 0.48505801 0.48505801 h -15.79673 -15.79672 z"
     id="path838"
     inkscape:connector-curvature="0" /><path
     style="fill:#9d93ac;fill-opacity:1;stroke-width:0.0323372"
     d="M 281.41241,0.51253368 V 0.02747567 h 29.28134 29.28133 v 0.48505801 0.48505801 h -29.28133 -29.28134 z"
     id="path840"
     inkscape:connector-curvature="0" /><path
     style="fill:#9d93ac;fill-opacity:1;stroke-width:0.0323372"
     d="M 306.72238,0.51253368 V 0.02747567 h 29.28134 29.28133 v 0.48505801 0.48505801 h -29.28133 -29.28134 z"
     id="path842"
     inkscape:connector-curvature="0" /><path
     style="fill:#9d93ac;fill-opacity:1;stroke-width:0.0323372"
     d="m 211.99973,0.4910113 v -0.50658041 l 4.85595,0.02152239 c 2.67077,0.01183732 12.82788,0.02152239 22.57136,0.02152239 h 17.71542 V 0.51253368 0.99759169 H 234.5711 211.99973 Z"
     id="path844"
     inkscape:connector-curvature="0" /><path
     style="fill:#9d93ac;fill-opacity:1;stroke-width:0.0323372"
     d="m 212.00228,0.491005 v -0.50658668 l 5.89345,0.02151887 c 3.2414,0.01183537 10.29172,0.02152327 15.66738,0.02152867 l 9.77391,9.81e-6 v 0.48505801 0.48505801 h -15.66737 -15.66737 z"
     id="path846"
     inkscape:connector-curvature="0" /><path
     style="fill:#9d93ac;fill-opacity:1;stroke-width:0.0323372"
     d="M 175.57073,0.51253368 V 0.02747567 l 8.52894,-7.53e-6 c 4.69091,-4.14e-6 11.98861,-0.0096951 16.2171,-0.02153553 l 7.68817,-0.021528 v 0.50659353 0.50659355 h -16.2171 -16.21711 z"
     id="path848"
     inkscape:connector-curvature="0" /><path
     style="fill:#9d93ac;fill-opacity:1;stroke-width:0.0323372"
     d="M 142.20759,0.51253368 V 0.02747567 h 23.40676 c 12.87372,0 26.05032,-0.0096879 29.28134,-0.02152856 l 5.87457,-0.02152857 v 0.50658659 0.50658656 h -29.28134 -29.28133 z"
     id="path850"
     inkscape:connector-curvature="0" /><path
     style="fill:#9d93ac;fill-opacity:1;stroke-width:0.0323372"
     d="M 83.534482,0.51253368 V 0.02747567 h 29.281338 29.28133 V 0.51253368 0.99759169 H 112.81582 83.534482 Z"
     id="path852"
     inkscape:connector-curvature="0" /><path
     style="fill:#9d93ac;fill-opacity:1;stroke-width:0.0323372"
     d="M 5.3036716,0.51253368 V 0.02747567 H 34.585007 63.866342 V 0.51253368 0.99759169 H 34.585007 5.3036716 Z"
     id="path854"
     inkscape:connector-curvature="0" /></svg>