<?xml version="1.0" encoding="UTF-8" standalone="no"?>
<!-- Generator: Adobe Illustrator 18.0.0, SVG Export Plug-In . SVG Version: 6.00 Build 0)  -->

<svg
   xmlns:dc="http://purl.org/dc/elements/1.1/"
   xmlns:cc="http://creativecommons.org/ns#"
   xmlns:rdf="http://www.w3.org/1999/02/22-rdf-syntax-ns#"
   xmlns:svg="http://www.w3.org/2000/svg"
   xmlns="http://www.w3.org/2000/svg"
   xmlns:sodipodi="http://sodipodi.sourceforge.net/DTD/sodipodi-0.dtd"
   xmlns:inkscape="http://www.inkscape.org/namespaces/inkscape"
   version="1.1"
   id="Layer_1"
   x="0px"
   y="0px"
   width="56px"
   height="1px"
   viewBox="0 0 56 1"
   enable-background="new 0 0 56 1"
   xml:space="preserve"
   sodipodi:docname="cd-pattern-small.svg"
   inkscape:version="0.92.2 (5c3e80d, 2017-08-06)"><metadata
     id="metadata13"><rdf:RDF><cc:Work
         rdf:about=""><dc:format>image/svg+xml</dc:format><dc:type
           rdf:resource="http://purl.org/dc/dcmitype/StillImage" /></cc:Work></rdf:RDF></metadata><defs
     id="defs11" /><sodipodi:namedview
     pagecolor="#ffffff"
     bordercolor="#666666"
     borderopacity="1"
     objecttolerance="10"
     gridtolerance="10"
     guidetolerance="10"
     inkscape:pageopacity="0"
     inkscape:pageshadow="2"
     inkscape:window-width="1600"
     inkscape:window-height="838"
     id="namedview9"
     showgrid="false"
     inkscape:zoom="45.254834"
     inkscape:cx="7.4802588"
     inkscape:cy="0.34375"
     inkscape:window-x="-8"
     inkscape:window-y="-8"
     inkscape:window-maximized="1"
     inkscape:current-layer="Layer_1" /><g
     id="g6"><rect
       fill="#3E243C"
       width="27"
       height="1"
       id="rect2" /><rect
       x="29"
       fill="#3E243C"
       width="27"
       height="1"
       id="rect4" /></g><path
     style="fill:#9d93ac;fill-opacity:1;stroke-width:0.02439024"
     d="M 29.009756,0.50487805 V 0.01707317 h 10.548781 10.54878 V 0.50487805 0.99268293 H 39.558537 29.009756 Z"
     id="path820"
     inkscape:connector-curvature="0" /><path
     style="fill:#9d93ac;fill-opacity:1;stroke-width:0.02439024"
     d="M 50.120903,0.50487805 V 0.01707317 h 2.939024 2.939024 v 0.48780488 0.48780488 h -2.939024 -2.939024 z"
     id="path822"
     inkscape:connector-curvature="0" /><path
     style="fill:#9d93ac;fill-opacity:1;stroke-width:0.02439024"
     d="m 50.1068,0.50487805 c 0,-0.275 0.0036,-0.3875 0.0079,-0.25 0.0043,0.1375 0.0043,0.3625 0,0.5 -0.0043,0.1375 -0.0079,0.025 -0.0079,-0.25 z"
     id="path824"
     inkscape:connector-curvature="0" /><path
     style="fill:#9d93ac;fill-opacity:1;stroke-width:0.02439024"
     d="M 50.120903,0.50487805 V 0.01707317 h 2.939024 2.939024 v 0.48780488 0.48780488 h -2.939024 -2.939024 z"
     id="path826"
     inkscape:connector-curvature="0" /><path
     style="fill:#9d93ac;fill-opacity:1;stroke-width:0.02439024"
     d="M 50.120903,0.50487805 V 0.01707317 h 2.939024 2.939024 v 0.48780488 0.48780488 h -2.939024 -2.939024 z"
     id="path828"
     inkscape:connector-curvature="0" /><path
     style="fill:#9d93ac;fill-opacity:1;stroke-width:0.02439024"
     d="M 50.120903,0.50487805 V 0.01707317 h 2.939024 2.939024 v 0.48780488 0.48780488 h -2.939024 -2.939024 z"
     id="path830"
     inkscape:connector-curvature="0" /><path
     style="fill:#9d93ac;fill-opacity:1;stroke-width:0.02439024"
     d="M 50.120903,0.50487805 V 0.01707317 h 2.939024 2.939024 v 0.48780488 0.48780488 h -2.939024 -2.939024 z"
     id="path832"
     inkscape:connector-curvature="0" /><path
     style="fill:#9d93ac;fill-opacity:1;stroke-width:0.02439024"
     d="M 50.120903,0.50487805 V 0.01707317 h 2.939024 2.939024 v 0.48780488 0.48780488 h -2.939024 -2.939024 z"
     id="path834"
     inkscape:connector-curvature="0" /><path
     style="fill:#9d93ac;fill-opacity:1;stroke-width:0.02439024"
     d="M 50.120903,0.50487805 V 0.01707317 h 2.939024 2.939024 v 0.48780488 0.48780488 h -2.939024 -2.939024 z"
     id="path836"
     inkscape:connector-curvature="0" /><path
     style="fill:#9d93ac;fill-opacity:1;stroke-width:0.02439024"
     d="M 50.120903,0.50487805 V 0.01707317 h 2.939024 2.939024 v 0.48780488 0.48780488 h -2.939024 -2.939024 z"
     id="path838"
     inkscape:connector-curvature="0" /><path
     style="fill:#9d93ac;fill-opacity:1;stroke-width:0.00390625"
     d="m 50.116016,0.24589844 c -5.57e-4,-0.0299819 -0.0025,-0.0498047 -0.0048,-0.0498047 -0.0025,0 -0.0039,-0.0325521 -0.0039,-0.0898438 V 0.01640625 h -1.484375 c -1.481771,0 -1.484375,-1.371e-5 -1.484375,-0.0078125 0,-0.007806748 0.0026,-0.0078125 3.53711,-0.0078125 3.534505,0 3.537109,5.74219e-6 3.537109,0.0078125 0,0.00780256 -0.0026,0.0078125 -2.046826,0.0078125 h -2.046825 l -0.0011,0.13964844 c -5.92e-4,0.0768066 -0.0015,0.11723633 -0.002,0.0898438 z"
     id="path840"
     inkscape:connector-curvature="0" /><path
     style="fill:#9d93ac;fill-opacity:1;stroke-width:0.00390625"
     d="M 47.138528,0.50664062 V 0.0203125 l 1.485352,-7.9049e-4 1.485351,-7.905e-4 -1.392578,-0.0025412 c -1.62493,-0.0029652 -1.571672,-0.0026695 -1.558593,-0.0086539 0.01296,-0.00592962 7.005597,-0.006820691 7.029296,-8.9575e-4 0.01095,0.00273727 -0.08549,0.00450049 -0.322265,0.00589194 l -0.337891,0.0019857 0.342774,9.4401e-4 0.342773,9.44e-4 V 0.5046875 0.99296875 h -2.046875 -2.046875 l -8.21e-4,-0.45800781 c -4.52e-4,-0.2519043 -0.0018,-0.43076172 -0.003,-0.39746094 -0.0017,0.0468607 -0.0026,0.0548075 -0.0043,0.0351563 -0.0012,-0.0139648 -0.0021,0.0132812 -0.0022,0.0605469 -2.3e-5,0.0541203 8.8e-4,0.0743676 0.0024,0.0546875 0.0014,-0.0171875 0.0025,0.08125 0.0025,0.21875 0,0.1375 -0.0011,0.2359375 -0.0025,0.21875 -0.0014,-0.0171875 -0.0028,0.0359863 -0.0032,0.11816407 l -7.17e-4,0.14941406 h -1.484375 -1.484375 z"
     id="path842"
     inkscape:connector-curvature="0" /><path
     style="fill:#9d93ac;fill-opacity:1;stroke-width:0.00390625"
     d="M 50.112161,0.2401862 C 50.10611,0.22718122 50.105732,0.2 50.111602,0.2 c 0.0024,0 0.0034,0.002506 0.0022,0.005568 -0.0012,0.003062 -3.74e-4,0.0119502 0.0018,0.0197506 0.0052,0.0188041 0.003,0.0285495 -0.0034,0.0148676 z"
     id="path844"
     inkscape:connector-curvature="0" /><path
     style="fill:#9d93ac;fill-opacity:1;stroke-width:0.00390625"
     d="M 47.138528,0.50664062 V 0.0203125 l 1.028321,-7.8703e-4 1.02832,-7.8703e-4 -0.929688,-0.002549 c -1.177098,-0.0032274 -1.11908,-0.0027729 -1.109375,-0.00869101 0.01016,-0.0061961 7.006483,-0.007049616 7.03125,-8.5778e-4 0.01122,0.00280427 -0.04719,0.00447092 -0.207031,0.00590783 l -0.222656,0.0020016 0.227539,9.2811e-4 0.227539,9.2812e-4 V 0.5046875 0.99296875 h -2.046875 -2.046875 l -9.33e-4,-0.36816406 -9.33e-4,-0.36816407 -0.002,0.25 c -0.0011,0.1375 -0.003,0.24384766 -0.0043,0.23632813 -0.0013,-0.00752 -0.0026,0.0456543 -0.0029,0.11816406 l -6.25e-4,0.13183594 h -1.484375 -1.484375 z m 2.971513,-0.24116539 c -9.34e-4,-0.004859 -0.0017,-0.001803 -0.0018,0.00679 -4.3e-5,0.008594 7.21e-4,0.0125693 0.0017,0.008835 9.78e-4,-0.003735 10e-4,-0.010766 7.9e-5,-0.015625 z m -1.76e-4,-0.0352018 c -0.0011,-0.002686 -0.002,-4.8828e-4 -0.002,0.004883 0,0.005371 8.87e-4,0.007568 0.002,0.004883 0.0011,-0.002686 0.0011,-0.00708 0,-0.009766 z m 0.0086,-0.0273438 c -3.91e-4,-0.0245083 -0.0012,-0.0289521 -0.0034,-0.0185547 l -0.0029,0.0136719 -10e-4,-0.0136719 c -8.46e-4,-0.0110494 -0.0014,-0.0118396 -0.0028,-0.004119 -0.0017,0.008882 0.0061,0.0549006 0.0093,0.0549006 7.8e-4,0 0.0012,-0.014502 9.05e-4,-0.0322266 z m 3.628444,-0.18932131 c -0.0059,-8.9502e-4 -0.01558,-8.9502e-4 -0.02148,0 -0.0059,8.9502e-4 -0.0011,0.0016273 0.01074,0.0016273 0.01182,0 0.01665,-7.3229e-4 0.01074,-0.0016273 z"
     id="path846"
     inkscape:connector-curvature="0" /><path
     style="fill:#9d93ac;fill-opacity:1;stroke-width:0.00390625"
     d="m 48.621342,0.99394533 1.484767,-9.8674e-4 0.0025,-0.0357513 c 0.0014,-0.0196632 0.0028,-0.0605301 0.0032,-0.0908152 l 6.92e-4,-0.055064 0.0027,0.0585938 c 0.0015,0.0322266 0.0029,0.073094 0.0032,0.0908166 l 5.04e-4,0.0322229 2.047852,9.8397e-4 c 1.126318,5.4118e-4 0.455273,9.846e-4 -1.491211,9.8536e-4 -1.946485,7.7e-7 -2.870918,-4.4264e-4 -2.054296,-9.8535e-4 z"
     id="path848"
     inkscape:connector-curvature="0" /><path
     style="fill:#9d93ac;fill-opacity:1;stroke-width:0.00390625"
     d="m 50.111493,0.85397135 c 1.87e-4,-0.004551 0.0011,-0.005476 0.0024,-0.00236 0.0011,0.00282 9.9e-4,0.006189 -3.08e-4,0.007487 -0.0013,0.001298 -0.0022,-0.001009 -0.0021,-0.005127 z"
     id="path850"
     inkscape:connector-curvature="0" /><path
     style="fill:#9d93ac;fill-opacity:1;stroke-width:0.00390625"
     d="m 50.110208,0.85495396 c -0.0016,-0.003935 -0.0028,-0.0153613 -0.0025,-0.0253906 l 3.92e-4,-0.0182352 0.0037,0.015625 c 0.0044,0.0186586 0.0032,0.0396311 -0.0015,0.0280008 z"
     id="path852"
     inkscape:connector-curvature="0" /><path
     style="fill:#9d93ac;fill-opacity:1;stroke-width:0.00390625"
     d="M 47.138528,0.50664062 V 0.0203125 l 0.25293,-7.4675e-4 c 0.252923,-7.4674e-4 0.252926,-7.4683e-4 0.09668,-0.0033757 -0.08594,-0.0014459 -0.198438,-0.0029212 -0.25,-0.0032783 -0.07563,-5.238e-4 -0.09224,-0.0015703 -0.08594,-0.00541336 0.01016,-0.00619695 7.020482,-0.007051227 7.039063,-8.5778e-4 0.0085,0.00283001 -0.02434,0.00446622 -0.119141,0.00593866 l -0.130859,0.0020324 0.135742,8.9728e-4 0.135742,8.9728e-4 V 0.5046875 0.99296875 h -3.537109 -3.53711 z m 2.97681,0.40820313 c 0.0011,0.0268555 0.002,-0.0548828 0.002,-0.18164063 1.2e-5,-0.21826437 -1.42e-4,-0.22343574 -0.0029,-0.0976563 -0.0043,0.19234977 -0.006,0.34012571 -0.0033,0.28125 l 0.0023,-0.0507813 z m 0.0019,-0.70586539 c -0.0039,-0.0101852 -0.0067,-0.002968 -0.0035,0.009115 0.0022,0.00826 0.0033,0.009347 0.0044,0.004139 8.17e-4,-0.003885 4.17e-4,-0.00985 -8.9e-4,-0.0132544 z m -0.005,-0.0167909 c -0.0011,-0.004297 -0.0027,-0.007813 -0.0035,-0.007813 -8.24e-4,0 -0.0015,0.003516 -0.0015,0.007813 0,0.004297 0.0016,0.007813 0.0035,0.007813 0.0019,0 0.0026,-0.003516 0.0015,-0.007813 z"
     id="path854"
     inkscape:connector-curvature="0" /><path
     style="fill:#9d93ac;fill-opacity:1;stroke-width:0.00390625"
     d="M 47.138528,0.50664062 V 0.0203125 l 0.186524,-7.1528e-4 c 0.160827,-6.1674e-4 0.174415,-0.0010854 0.09863,-0.0034022 -0.04834,-0.0014778 -0.130079,-0.0029672 -0.181641,-0.0033097 -0.07562,-5.0238e-4 -0.09224,-0.0015443 -0.08594,-0.00538688 0.01016,-0.00619695 7.016576,-0.007051222 7.035157,-8.5778e-4 0.0087,0.00289229 -0.01465,0.00443907 -0.08984,0.00595891 l -0.101563,0.0020527 0.106446,8.7703e-4 0.106445,8.7704e-4 V 0.5046875 0.99296875 h -3.537109 -3.53711 z m 2.976961,0.38671875 c 0.0011,0.0128906 0.0021,-0.0512695 0.0022,-0.14257812 l 1.22e-4,-0.16601563 -0.0034,0.11914063 c -0.0019,0.0655273 -0.0027,0.12657941 -0.0018,0.13567121 8.71e-4,0.009092 4.6e-5,0.0155799 -0.0018,0.0144179 -0.0019,-0.001163 -0.0031,0.0151038 -0.0027,0.0362037 l 7.04e-4,0.0383165 0.0024,-0.0292969 0.0024,-0.0292969 0.002,0.0234375 z m 2.6e-4,-0.68254511 c -0.0029,-0.002899 -0.0034,-0.001374 -0.0017,0.005124 0.0014,0.005282 0.0032,0.007053 0.0041,0.004127 9.39e-4,-0.002818 -1.49e-4,-0.006981 -0.0024,-0.009251 z m -0.0059,-0.0235096 c -0.0011,-0.002686 -0.002,-4.8828e-4 -0.002,0.004883 0,0.005371 8.87e-4,0.007568 0.002,0.004883 0.0011,-0.002686 0.0011,-0.00708 0,-0.009766 z"
     id="path856"
     inkscape:connector-curvature="0" /><path
     style="fill:#9d93ac;fill-opacity:1;stroke-width:0.00390625"
     d="M 47.138528,0.50664062 V 0.0203125 l 0.122071,-6.4392e-4 c 0.08795,-4.6394e-4 0.111152,-0.0014275 0.08301,-0.0034474 -0.02148,-0.0015419 -0.07413,-0.00301 -0.116992,-0.0032623 -0.06234,-3.6706e-4 -0.07695,-0.0014354 -0.07305,-0.00534163 0.0063,-0.00630432 7.018793,-0.007277387 7.037696,-9.7657e-4 0.009,0.00301197 -0.0044,0.00438473 -0.05859,0.00599625 l -0.07031,0.00209 0.0752,8.3969e-4 0.0752,8.3969e-4 V 0.5046875 0.99296875 h -3.537109 -3.53711 z m 2.976681,0.37109375 c 0.0018,0.0044 0.0034,-0.0432371 0.0035,-0.10904949 1.52e-4,-0.0642741 -4.84e-4,-0.1161032 -0.0014,-0.11517582 -9.27e-4,9.2735e-4 -0.0026,0.0470936 -0.0036,0.10259164 -0.0011,0.0554981 -0.0029,0.10190727 -0.0042,0.1031316 -0.0012,0.001224 -0.0019,0.0146772 -0.0015,0.0298953 l 7.39e-4,0.0276692 0.0016,-0.0234375 c 0.0012,-0.0171259 0.0025,-0.0213336 0.0048,-0.015625 z"
     id="path858"
     inkscape:connector-curvature="0" /><path
     style="fill:#9d93ac;fill-opacity:1;stroke-width:0.00390625"
     d="M 47.138528,0.50664062 V 0.0203125 h 0.07008 c 0.04251,0 0.07103,-0.0015369 0.0725,-0.0039063 0.0016,-0.0025465 -0.02105,-0.0039063 -0.065,-0.0039063 -0.05393,0 -0.06644,-9.7657e-4 -0.06254,-0.00488281 0.0039,-0.00389901 0.712201,-0.00488282 3.51543,-0.00488282 3.307345,0 3.699905,0.0011208 3.48125,0.00993931 l -0.05273,0.0021268 0.05762,8.0288e-4 0.05762,8.0288e-4 V 0.5046875 0.99296875 h -3.537109 -3.53711 z m 2.979274,0.26379793 c 8.76e-4,-0.0525674 7.43e-4,-0.094726 -2.97e-4,-0.0936857 -0.001,0.00104 -0.0029,0.0422921 -0.0041,0.0916709 -0.0012,0.0493787 -0.003,0.0985685 -0.004,0.1093107 l -0.0018,0.0195313 0.0043,-0.015625 c 0.0024,-0.008594 0.005,-0.0586347 0.0059,-0.11120207 z"
     id="path860"
     inkscape:connector-curvature="0" /><path
     style="fill:#9d93ac;fill-opacity:1;stroke-width:0.00390625"
     d="M 47.138528,0.50664062 V 0.0203125 l 0.05566,-4.6217e-4 c 0.03062,-2.5419e-4 0.06094,-0.001804 0.06738,-0.0034441 0.007,-0.0017816 -0.01336,-0.003168 -0.05059,-0.0034441 -0.04984,-3.6974e-4 -0.06133,-0.0014387 -0.05742,-0.00534498 0.0063,-0.00626584 7.018705,-0.00728077 7.037696,-0.00101859 0.0099,0.00325106 0.0055,0.00421573 -0.02734,0.00607943 l -0.03906,0.0022152 0.04395,7.5651e-4 0.04395,7.5651e-4 V 0.5046875 0.99296875 h -3.537109 -3.53711 z m 2.975325,0.35278321 c -0.0012,-0.003116 -0.0022,-0.002191 -0.0024,0.00236 -1.7e-4,0.004118 7.54e-4,0.006425 0.0021,0.005127 0.0013,-0.001298 0.0014,-0.004667 3.08e-4,-0.007487 z m 0.0048,-0.11222332 c 2.12e-4,-0.0288249 -2.5e-4,-0.0516764 -0.001,-0.0507813 -7.77e-4,8.9519e-4 -0.0023,0.0341472 -0.0034,0.0738932 -0.0011,0.0408801 -6.85e-4,0.0629348 0.001,0.0507813 0.0017,-0.0118164 0.0032,-0.0450684 0.0034,-0.0738932 z"
     id="path862"
     inkscape:connector-curvature="0" /><path
     style="fill:#9d93ac;fill-opacity:1;stroke-width:0.00390625"
     d="M 47.138528,0.50664062 V 0.0203125 l 0.03613,-4.2396e-4 c 0.01987,-2.3318e-4 0.04668,-0.0017325 0.05957,-0.003332 0.01899,-0.002356 0.01309,-0.003017 -0.03105,-0.0034823 -0.04359,-4.5944e-4 -0.05352,-0.0015509 -0.04961,-0.00545711 0.0039,-0.00389901 0.712201,-0.00488282 3.51543,-0.00488282 2.270582,0 3.514686,0.00134572 3.522266,0.00380993 0.01041,0.00338545 0.0085,0.00406866 -0.01758,0.0061322 l -0.0293,0.0023223 0.03418,7.0375e-4 0.03418,7.0374e-4 V 0.5046875 0.99296875 h -3.537109 -3.53711 z m 2.975244,0.30175782 c -0.0011,-0.002686 -0.002,-4.8828e-4 -0.002,0.004883 0,0.005371 8.87e-4,0.007568 0.002,0.004883 0.0011,-0.002686 0.0011,-0.00708 0,-0.009766 z m 0.0042,-0.0782429 c -8.19e-4,-0.009066 -0.0015,-6.634e-4 -0.0015,0.0186725 1.2e-5,0.0193359 6.83e-4,0.0267536 0.0015,0.0164837 8.07e-4,-0.0102699 7.97e-4,-0.0260902 -2.4e-5,-0.0351563 z"
     id="path864"
     inkscape:connector-curvature="0" /><path
     style="fill:#9d93ac;fill-opacity:1;stroke-width:0.00390625"
     d="M 47.138528,0.50720637 V 0.02144402 l 0.0498,-0.0038227 0.0498,-0.0038228 -0.04473,-6.4926e-4 c -0.03578,-5.1941e-4 -0.04375,-0.0016258 -0.03984,-0.00553207 0.0039,-0.00389901 0.712201,-0.00488282 3.51543,-0.00488282 2.239624,0 3.514789,0.0013618 3.522266,0.00376156 0.01094,0.00351041 0.01015,0.00392299 -0.01172,0.00617927 l -0.02344,0.0024177 0.02832,6.5667e-4 0.02832,6.5667e-4 V 0.5046875 0.99296875 h -3.537109 -3.53711 z"
     id="path866"
     inkscape:connector-curvature="0" /><path
     style="fill:#9d93ac;fill-opacity:1;stroke-width:0.00390625"
     d="M 47.138528,0.50699129 V 0.02101382 l 0.03418,-0.0025053 c 0.05099,-0.0037377 0.0537,-0.0048884 0.01289,-0.0054765 -0.02953,-4.2557e-4 -0.03594,-0.0015085 -0.03203,-0.00541477 0.0039,-0.00389901 0.712201,-0.00488282 3.51543,-0.00488282 2.192247,0 3.514948,0.00138565 3.522266,0.00368987 l 0.01172,0.00368987 -0.01758,0.0025594 -0.01758,0.0025594 0.02246,5.867e-4 0.02246,5.8669e-4 V 0.5046875 0.99296875 h -3.537109 -3.53711 z"
     id="path868"
     inkscape:connector-curvature="0" /><path
     style="fill:#9d93ac;fill-opacity:1;stroke-width:0.00390625"
     d="M 47.138528,0.50695152 V 0.02093433 l 0.02441,-0.0022621 c 0.04555,-0.0042205 0.0479,-0.0050008 0.0168,-0.005587 -0.02484,-4.6822e-4 -0.03008,-0.0015619 -0.02617,-0.00546809 0.0039,-0.00389902 0.712982,-0.00488282 3.519336,-0.00488282 2.13402,0 3.517522,0.00141328 3.522266,0.00359806 0.0069,0.00317778 0.0062,0.00391619 -0.0059,0.00632171 -0.01321,0.002631 -0.01304,0.0027412 0.0049,0.0032379 l 0.01855,5.1422e-4 V 0.5046875 0.99296875 h -3.537109 -3.53711 z"
     id="path870"
     inkscape:connector-curvature="0" /><path
     style="fill:#9d93ac;fill-opacity:1;stroke-width:0.00390625"
     d="M 47.138528,0.50692172 V 0.02087466 l 0.02246,-0.0024487 c 0.03733,-0.0040699 0.03917,-0.0048392 0.01289,-0.005394 -0.02016,-4.2557e-4 -0.02422,-0.0015085 -0.02031,-0.00541477 0.0039,-0.00389902 0.712982,-0.00488282 3.519336,-0.00488282 2.037941,0 3.517736,0.00145674 3.522266,0.00346738 0.0074,0.0032957 0.0073,0.00361488 -0.002,0.00644656 -0.0086,0.0026229 -0.008,0.0030258 0.0049,0.0033686 l 0.01465,3.8938e-4 V 0.5046875 0.99296875 h -3.537109 -3.53711 z"
     id="path872"
     inkscape:connector-curvature="0" /><path
     style="fill:#9d93ac;fill-opacity:1;stroke-width:0.00390625"
     d="M 47.138528,0.50687996 V 0.02079119 l 0.0166,-0.0021403 c 0.03368,-0.0043421 0.03568,-0.0050984 0.01484,-0.005619 -0.01703,-4.2557e-4 -0.02031,-0.0015085 -0.01641,-0.00541477 0.0039,-0.00389902 0.712982,-0.00488282 3.519336,-0.00488282 1.944409,0 3.517944,0.00149612 3.522266,0.00334897 l 0.0078,0.00334897 -0.0078,0.00321242 c -0.0065,0.0026521 -0.0056,0.0032603 0.0049,0.003487 l 0.0127,2.7455e-4 V 0.5046875 0.99296875 h -3.537109 -3.53711 z"
     id="path874"
     inkscape:connector-curvature="0" /><path
     style="fill:#9d93ac;fill-opacity:1;stroke-width:0.00390625"
     d="M 47.138528,0.50681762 V 0.02066651 l 0.0127,-0.0020532 c 0.007,-0.0011293 0.01709,-0.0027273 0.02246,-0.0035513 0.0054,-8.2395e-4 0.0019,-0.0017375 -0.0076,-0.0020301 -0.01391,-4.2557e-4 -0.01641,-0.0015085 -0.0125,-0.00541477 0.0039,-0.00389902 0.712982,-0.00488282 3.519336,-0.00488282 1.932949,0 3.51792,0.00141293 3.522157,0.00313983 0.0065,0.00263695 0.0068,0.00372222 0.002,0.00677612 -0.0044,0.0027605 -0.0032,0.0036507 0.005,0.0036961 l 0.01074,5.982e-5 V 0.5046875 0.99296875 h -3.537109 -3.53711 z"
     id="path876"
     inkscape:connector-curvature="0" /><path
     style="fill:#9d93ac;fill-opacity:1;stroke-width:0.00390625"
     d="m 47.138528,0.50671504 v -0.4862537 l 0.0088,-0.0019105 c 0.0048,-0.0010508 0.01318,-0.0026027 0.01855,-0.0034487 0.0074,-0.0011576 0.0064,-0.0016698 -0.0037,-0.0020701 -0.01078,-4.2557e-4 -0.0125,-0.0015085 -0.0086,-0.00541477 0.0039,-0.00389902 0.712982,-0.00488282 3.519336,-0.00488282 1.932949,0 3.51792,0.00141293 3.522157,0.00313983 0.0065,0.00263695 0.0068,0.00372222 0.002,0.00677612 -0.0044,0.0027605 -0.0032,0.0036507 0.005,0.0036961 l 0.01074,5.982e-5 V 0.5046875 0.99296875 h -3.537109 -3.53711 z"
     id="path878"
     inkscape:connector-curvature="0" /><path
     style="fill:#9d93ac;fill-opacity:1;stroke-width:0.00390625"
     d="M 20.019429,0.49882812 V 7.8125e-4 h 3.490234 3.490235 V 0.49882812 0.996875 h -3.490235 -3.490234 z"
     id="path880"
     inkscape:connector-curvature="0" /><path
     style="fill:#9d93ac;fill-opacity:1;stroke-width:0.00390625"
     d="M 29.003563,0.49882812 V 7.8125e-4 h 1.421875 c 1.419271,0 1.421875,1.429687e-5 1.421875,0.0078125 0,0.00779817 -0.0026,0.0078125 -1.419922,0.0078125 h -1.419922 v 0.48827594 0.48827593 l 1.420899,9.8719e-4 1.420898,9.8723e-4 -1.422851,9.7121e-4 -1.422852,9.7125e-4 z"
     id="path882"
     inkscape:connector-curvature="0" /><path
     style="fill:#9d93ac;fill-opacity:1;stroke-width:0.00390625"
     d="M 29.003563,0.49898559 V -1.7436539e-4 l 1.415824,0.001587945 c 0.778703,8.7337e-4 1.417082,0.0028462 1.41862,0.00438406 0.0015,0.00153786 0.0015,0.00404646 1.5e-5,0.00557467 -0.0015,0.0015282 -0.639026,0.0035037 -1.416665,0.00439 l -1.413888,0.0016114 9.62e-4,0.48877409 9.61e-4,0.4887741 0.001,-0.48730468 0.001,-0.48730469 h 1.417954 1.417953 v 0.48632812 0.48632813 h -1.263032 c -0.694667,0 -1.334511,0.001165 -1.421875,0.002588 l -0.158843,0.002588 z"
     id="path884"
     inkscape:connector-curvature="0" /><path
     style="fill:#9d93ac;fill-opacity:1;stroke-width:0.00390625"
     d="M 29.003563,0.49906016 V -4.2557891e-5 l 1.41569,0.0013884679 c 0.77863,7.6366e-4 1.417009,0.00270682 1.41862,0.00431815 0.0016,0.00161133 0.0016,0.00424805 0,0.00585938 -0.0016,0.0016113 -0.639111,0.003559 -1.416667,0.0043282 l -1.413737,0.0013985 9.59e-4,0.41266399 9.58e-4,0.41266398 0.001,-0.41113281 0.001,-0.41113281 h 1.417951 1.417951 v 0.48632812 0.48632813 l -1.067383,2.38e-6 c -0.58706,1.29e-6 -1.226904,0.00117 -1.421875,0.002597 l -0.354492,0.002595 z"
     id="path886"
     inkscape:connector-curvature="0" /><path
     style="fill:#9d93ac;fill-opacity:1;stroke-width:0.00390625"
     d="M 29.003563,0.4990984 V 3.1335664e-5 l 1.41569,0.0013515243 c 0.77863,7.4333e-4 1.417009,0.00266987 1.41862,0.0042812 0.0016,0.00161133 0.0016,0.00424805 0,0.00585938 -0.0016,0.0016113 -0.639111,0.0035412 -1.416666,0.0042885 l -1.413738,0.0013588 9.5e-4,0.27012553 9.49e-4,0.27012553 0.001,-0.26855468 0.001,-0.26855469 h 1.417942 1.417942 v 0.48632812 0.48632813 h -0.987634 c -0.543199,0 -1.183043,0.001169 -1.421875,0.002598 l -0.434241,0.002598 z"
     id="path888"
     inkscape:connector-curvature="0" /><path
     style="fill:#9d93ac;fill-opacity:1;stroke-width:0.00390625"
     d="M 29.003563,0.49915816 V 1.483116e-4 l 1.415691,0.001293028 c 0.778629,7.1117e-4 1.417008,0.00261139 1.418619,0.00422272 0.0016,0.00161133 0.0016,0.00424805 0,0.00585938 -0.0016,0.0016113 -0.613183,0.0038864 -1.359049,0.0050558 l -1.35612,0.0021261 1.362304,8.0361e-4 1.362305,8.0362e-4 v 0.48632812 0.48632813 h -0.864586 c -0.475523,0 -1.115367,0.00117 -1.421875,0.0026 l -0.557289,0.0026 z m 0.0068,-0.39947984 c -6.24e-4,-0.04687386 -0.0011,-0.0096393 -0.0011,0.08274355 -1e-6,0.0923828 5.1e-4,0.13073416 0.0011,0.0852252 6.24e-4,-0.0455089 6.25e-4,-0.12109489 2e-6,-0.16796875 z m 0.09582,-0.08222024 c -0.0091,-8.1923e-4 -0.02489,-8.2897e-4 -0.03516,-2.164e-5 -0.01027,8.0733e-4 -0.0029,0.0014776 0.01648,0.0014895 0.01934,1.191e-5 0.02774,-6.4864e-4 0.01867,-0.0014679 z"
     id="path890"
     inkscape:connector-curvature="0" /><path
     style="fill:#9d93ac;fill-opacity:1;stroke-width:0.00390625"
     d="M 29.003563,0.49918254 V 1.9507555e-4 l 1.415691,0.001269654 c 0.778629,6.983e-4 1.417008,0.002588 1.418619,0.00419933 0.0016,0.00161133 0.0016,0.00424805 0,0.00585938 -0.0016,0.0016113 -0.377637,0.0039076 -0.835612,0.0051028 l -0.832682,0.0021731 0.838867,7.5661e-4 0.838867,7.5661e-4 v 0.48632812 0.48632813 l -0.709961,1.17e-6 c -0.390478,6.7e-7 -1.030322,0.001171 -1.421875,0.002601 l -0.711914,0.002599 z m 0.0068,-0.36851848 c -7.75e-4,-0.0123535 -0.0014,-0.002246 -0.0014,0.0224609 0,0.024707 6.34e-4,0.0348144 0.0014,0.0224609 7.75e-4,-0.0123535 7.75e-4,-0.0325684 0,-0.0449218 z"
     id="path892"
     inkscape:connector-curvature="0" /><path
     style="fill:#9d93ac;fill-opacity:1;stroke-width:0.00390625"
     d="m 29.003562,0.49955652 1e-6,-0.49927160949 1.415691,0.001224729 c 0.77863,6.7361e-4 1.417008,0.00254309 1.418619,0.00415442 0.0016,0.00161133 0.0018,0.00407219 3.91e-4,0.00546858 -0.0014,0.0013964 -0.22625,0.0037236 -0.499675,0.0051715 l -0.497135,0.0026327 0.502929,6.8783e-4 0.50293,6.8782e-4 v 0.48632812 0.48632813 l -0.827148,5.593e-4 c -0.454932,3.0742e-4 -1.094776,0.001626 -1.421877,0.00293 l -0.594727,0.00237 z"
     id="path894"
     inkscape:connector-curvature="0" /><path
     style="fill:#9d93ac;fill-opacity:1;stroke-width:0.00390625"
     d="M 13.885667,0.49882812 V 7.8125e-4 h 3.066407 3.066406 V 0.49882812 0.996875 h -3.066406 -3.066407 z"
     id="path896"
     inkscape:connector-curvature="0" /><path
     style="fill:#9d93ac;fill-opacity:1;stroke-width:0.00390625"
     d="M 7.2918735,0.49882812 V 7.8125e-4 h 3.2968755 3.296875 V 0.49882812 0.996875 H 10.588749 7.2918735 Z"
     id="path898"
     inkscape:connector-curvature="0" /><path
     style="fill:#9d93ac;fill-opacity:1;stroke-width:0.00390625"
     d="M 0.00257739,0.49882812 V 7.8125e-4 H 3.2740618 6.5455461 V 0.49882812 0.996875 H 3.2740618 0.00257739 Z"
     id="path900"
     inkscape:connector-curvature="0" /><path
     style="fill:#9d93ac;fill-opacity:1;stroke-width:0.02209709"
     d="M 0.01450597,0.50598981 V 0.0198539 H 3.2738263 6.5331466 V 0.50598981 0.99212572 H 3.2738263 0.01450597 Z"
     id="path902"
     inkscape:connector-curvature="0" /><path
     style="fill:#9d93ac;fill-opacity:1;stroke-width:0.02209709"
     d="M 6.5552437,0.50598981 V 0.0198539 H 6.9198456 7.2844475 V 0.50598981 0.99212572 H 6.9198456 6.5552437 Z"
     id="path904"
     inkscape:connector-curvature="0" /><path
     style="fill:#9d93ac;fill-opacity:1;stroke-width:0.02209709"
     d="M 6.5552437,0.50598981 V 0.0198539 H 6.9198456 7.2844475 V 0.50598981 0.99212572 H 6.9198456 6.5552437 Z"
     id="path906"
     inkscape:connector-curvature="0" /><path
     style="fill:#9d93ac;fill-opacity:1;stroke-width:0.02209709"
     d="M 6.5552437,0.50598981 V 0.0198539 H 6.9198456 7.2844475 V 0.50598981 0.99212572 H 6.9198456 6.5552437 Z"
     id="path908"
     inkscape:connector-curvature="0" /><path
     style="fill:#9d93ac;fill-opacity:1;stroke-width:0.02209709"
     d="M 6.5552437,0.50598981 V 0.0198539 H 6.9198456 7.2844475 V 0.50598981 0.99212572 H 6.9198456 6.5552437 Z"
     id="path910"
     inkscape:connector-curvature="0" /><path
     style="fill:#9d93ac;fill-opacity:1;stroke-width:0.02209709"
     d="M 6.5552437,0.50598981 V 0.0198539 H 6.9198456 7.2844475 V 0.50598981 0.99212572 H 6.9198456 6.5552437 Z"
     id="path912"
     inkscape:connector-curvature="0" /><path
     style="fill:#9d93ac;fill-opacity:1;stroke-width:0.02209709"
     d="M 0.01450597,0.50598981 V 0.0198539 H 3.2738263 6.5331466 V 0.50598981 0.99212572 H 3.2738263 0.01450597 Z"
     id="path914"
     inkscape:connector-curvature="0" /><path
     style="fill:#9d93ac;fill-opacity:1;stroke-width:0.02209709"
     d="M 0.01450597,0.50598981 V 0.0198539 H 3.2730787 6.5316515 l 0.0071,0.23754368 0.0071,0.23754369 0.00469,-0.23754369 0.00469,-0.23754368 H 6.9198456 7.2844475 V 0.50598981 0.99212572 H 6.9209001 6.5573524 l -0.00785,-0.13810679 -0.00785,-0.1381068 -0.00426,0.1381068 -0.00426,0.13810679 H 3.2738263 0.01450597 Z"
     id="path916"
     inkscape:connector-curvature="0" /><path
     style="fill:#9d93ac;fill-opacity:1;stroke-width:0.02209709"
     d="M 0.01450597,0.50598981 V 0.0198539 H 3.272966 6.5314259 l 0.00737,0.19334951 0.00736,0.19334951 0.00454,-0.19334951 0.00454,-0.19334951 H 6.9198456 7.2844475 V 0.50598981 0.99212572 H 6.9210004 6.5575533 l -0.00812,-0.11600971 -0.00812,-0.1160097 -0.00409,0.1160097 -0.00409,0.11600971 H 3.2738263 0.01450597 Z"
     id="path918"
     inkscape:connector-curvature="0" /><path
     style="fill:#9d93ac;fill-opacity:1;stroke-width:0.02209709"
     d="M 0.01450597,0.50598981 V 0.0198539 H 3.2727236 6.5309411 l 0.00797,0.12705825 0.00797,0.12705825 0.00418,-0.12705825 0.00418,-0.12705825 H 6.9198456 7.2844475 V 0.50598981 0.99212572 H 6.9211796 6.5579115 l -0.00867,-0.0828641 -0.00867,-0.0828641 -0.00371,0.0828641 -0.00371,0.0828641 H 3.2738263 0.01450597 Z"
     id="path920"
     inkscape:connector-curvature="0" /><path
     style="fill:#9d93ac;fill-opacity:1;stroke-width:0.02209709"
     d="M 0.01450597,0.50598981 V 0.0198539 H 3.2724923 6.5304788 l 0.00867,0.08286407 0.00867,0.0828641 0.00371,-0.0828641 0.00371,-0.08286407 h 0.3646019 0.3646019 v 0.48613591 0.48613591 h -0.363065 c -0.3589431,0 -0.3631738,-5.6458e-4 -0.3726413,-0.0497184 l -0.00958,-0.0497184 -0.00301,0.0497184 -0.00301,0.0497184 h -3.25931 -3.25932033 z"
     id="path922"
     inkscape:connector-curvature="0" /><path
     style="fill:#9d93ac;fill-opacity:1;stroke-width:0.02209709"
     d="M 0.01450597,0.50598981 V 0.0198539 H 3.2722894 6.5300729 l 0.00958,0.04971844 0.00958,0.04971845 0.00301,-0.04971845 C 6.5552262,0.02014289 6.557363,0.0198539 6.9198456,0.0198539 H 7.2844475 V 0.50598981 0.99212572 H 6.9214658 c -0.3271156,0 -0.3639801,-0.003821 -0.373087,-0.0386699 -0.00962,-0.0368285 -0.010228,-0.0368285 -0.012669,0 -0.00243,0.0366421 -0.173477,0.0386699 -3.2618836,0.0386699 H 0.01450597 Z"
     id="path924"
     inkscape:connector-curvature="0" /><path
     style="fill:#9d93ac;fill-opacity:1;stroke-width:0.02209709"
     d="M 0.01450597,0.50598981 V 0.0198539 H 3.2722061 c 3.0839903,0 3.2582389,0.002062 3.2678054,0.0386699 0.00962,0.03682848 0.010228,0.03682848 0.012669,0 0.00233,-0.03516249 0.035633,-0.0386699 0.3671652,-0.0386699 H 7.2844475 V 0.50598981 0.99212572 H 6.921687 c -0.2695328,0 -0.3656248,-0.007099 -0.3739059,-0.0276214 -0.00892,-0.0220971 -0.011494,-0.0220971 -0.01289,0 -0.00139,0.0219644 -0.6692704,0.0276214 -3.2610649,0.0276214 H 0.01450597 Z"
     id="path926"
     inkscape:connector-curvature="0" /><path
     style="fill:#9d93ac;fill-opacity:1;stroke-width:0.02209709"
     d="M 13.897253,0.50598981 V 0.0198539 h 6.551786 6.551786 v 0.48613591 0.48613591 h -6.551786 -6.551786 z"
     id="path928"
     inkscape:connector-curvature="0" /><path
     style="fill:#9d93ac;fill-opacity:1;stroke-width:0.02209709"
     d="M 13.897253,0.50598981 V 0.0198539 h 6.551786 6.551786 v 0.48613591 0.48613591 h -6.551786 -6.551786 z"
     id="path930"
     inkscape:connector-curvature="0" /><path
     style="fill:#9d93ac;fill-opacity:1;stroke-width:0.02209709"
     d="M 13.897253,0.50598981 V 0.0198539 h 6.551786 6.551786 v 0.48613591 0.48613591 h -6.551786 -6.551786 z"
     id="path932"
     inkscape:connector-curvature="0" /><path
     style="fill:#9d93ac;fill-opacity:1;stroke-width:0.02209709"
     d="M 13.897253,0.50598981 V 0.0198539 h 6.551786 6.551786 v 0.48613591 0.48613591 h -6.551786 -6.551786 z"
     id="path934"
     inkscape:connector-curvature="0" /><path
     style="fill:#9d93ac;fill-opacity:1;stroke-width:0.02209709"
     d="M 13.897253,0.50598981 V 0.0198539 h 6.551786 6.551786 v 0.48613591 0.48613591 h -6.551786 -6.551786 z"
     id="path936"
     inkscape:connector-curvature="0" /><path
     style="fill:#9d93ac;fill-opacity:1;stroke-width:0.02209709"
     d="M 13.897253,0.50598981 V 0.0198539 h 6.551786 6.551786 v 0.48613591 0.48613591 h -6.551786 -6.551786 z"
     id="path938"
     inkscape:connector-curvature="0" /><path
     style="fill:#9d93ac;fill-opacity:1;stroke-width:0.02209709"
     d="m 13.884631,0.49494127 c 1.5e-5,-0.27952815 0.0032,-0.39083363 0.007,-0.24734551 0.0039,0.14348814 0.0038,0.37219299 -2.8e-5,0.50823299 -0.0039,0.13604003 -0.007,0.0186407 -0.007,-0.26088748 z"
     id="path940"
     inkscape:connector-curvature="0" /><path
     style="fill:#9d93ac;fill-opacity:1;stroke-width:0.02209709"
     d="M 13.897253,0.50598981 V 0.0198539 h 6.551786 6.551786 v 0.48613591 0.48613591 h -6.551786 -6.551786 z"
     id="path942"
     inkscape:connector-curvature="0" /><path
     style="fill:#9d93ac;fill-opacity:1;stroke-width:0.02209709"
     d="M 13.897253,0.50598981 V 0.0198539 h 6.551786 6.551786 v 0.48613591 0.48613591 h -6.551786 -6.551786 z"
     id="path944"
     inkscape:connector-curvature="0" /><path
     style="fill:#9d93ac;fill-opacity:1;stroke-width:0.02209709"
     d="M 13.897253,0.50598981 V 0.0198539 h 6.551786 6.551786 v 0.48613591 0.48613591 h -6.551786 -6.551786 z"
     id="path946"
     inkscape:connector-curvature="0" /><path
     style="fill:#9d93ac;fill-opacity:1;stroke-width:0.02209709"
     d="M 13.897253,0.50598981 V 0.0198539 h 6.551786 6.551786 v 0.48613591 0.48613591 h -6.551786 -6.551786 z"
     id="path948"
     inkscape:connector-curvature="0" /><path
     style="fill:#9d93ac;fill-opacity:1;stroke-width:0.02209709"
     d="M 13.897253,0.50598981 V 0.0198539 h 6.551786 6.551786 v 0.48613591 0.48613591 h -6.551786 -6.551786 z"
     id="path950"
     inkscape:connector-curvature="0" /><path
     style="fill:#9d93ac;fill-opacity:1;stroke-width:0.02209709"
     d="M 13.897253,0.50598981 V 0.0198539 h 6.551786 6.551786 v 0.48613591 0.48613591 h -6.551786 -6.551786 z"
     id="path952"
     inkscape:connector-curvature="0" /><path
     style="fill:#9d93ac;fill-opacity:1;stroke-width:0.02209709"
     d="M -0.00181484,0.50598981 V 0.0198539 H 6.9366704 13.875156 V 0.50598981 0.99212572 H 6.9366704 -0.00181484 Z"
     id="path954"
     inkscape:connector-curvature="0" /><path
     style="fill:#9d93ac;fill-opacity:1;stroke-width:0.02209709"
     d="M -0.00181484,0.50598981 V 0.0198539 H 6.9356608 13.873136 l 0.0077,0.14915533 0.0077,0.14915534 0.0043,-0.14915534 0.0043,-0.14915533 h 6.551786 6.551786 v 0.48613591 0.48613591 h -6.550957 -6.550957 l -0.0073,-0.20439805 -0.0073,-0.20439806 -0.0046,0.20439806 -0.0046,0.20439805 H 6.9366704 -0.00181484 Z"
     id="path956"
     inkscape:connector-curvature="0" /><path
     style="fill:#9d93ac;fill-opacity:1;stroke-width:0.02209709"
     d="M -0.00181484,0.50598981 V 0.0198539 H 6.9353999 13.872615 l 0.0085,0.09391262 0.0085,0.0939126 0.0039,-0.0939126 0.0039,-0.09391262 h 6.551786 6.551786 V 0.50598981 0.99212572 H 20.450304 13.89962 l -0.008,-0.12705825 -0.008,-0.12705825 -0.0042,0.12705825 -0.0042,0.12705825 H 6.9366704 -0.00181484 Z"
     id="path958"
     inkscape:connector-curvature="0" /><path
     style="fill:#9d93ac;fill-opacity:1;stroke-width:0.02209709"
     d="M -0.00181484,0.50598981 V 0.0198539 H 6.9352027 13.87222 l 0.0092,0.06076699 0.0092,0.06076699 0.0033,-0.06076699 0.0033,-0.06076699 h 6.551786 6.551786 V 0.50598981 0.99212572 H 20.450406 13.90002 l -0.0089,-0.0718155 -0.0089,-0.0718155 -0.0035,0.0718155 -0.0035,0.0718155 H 6.9366704 -0.00181484 Z"
     id="path960"
     inkscape:connector-curvature="0" /><path
     style="fill:#9d93ac;fill-opacity:1;stroke-width:0.02209709"
     d="M -0.00181484,0.50598981 V 0.0198539 H 6.9350503 c 6.5879567,0 6.9373727,0.001945 6.9469707,0.0386699 0.0096,0.03682848 0.01023,0.03682848 0.01267,0 0.0024,-0.03673577 0.330261,-0.0386699 6.554349,-0.0386699 h 6.551786 V 0.50598981 0.99212572 H 20.45066 c -6.219672,0 -6.550676,-0.001951 -6.560271,-0.0386699 -0.0096,-0.0368285 -0.01023,-0.0368285 -0.01267,0 -0.0024,0.0367409 -0.348675,0.0386699 -6.9410486,0.0386699 h -6.93848524 z"
     id="path962"
     inkscape:connector-curvature="0" /><path
     style="fill:#9d93ac;fill-opacity:1;stroke-width:0.02209709"
     d="M -0.00181484,0.50598981 V 0.0198539 H 6.9348291 c 5.5286399,0 6.9389059,0.0056066 6.9477889,0.02762136 0.0089,0.02209708 0.0115,0.02209708 0.01289,0 C 13.8969,0.0254442 15.223272,0.0198539 20.449039,0.0198539 h 6.551786 V 0.50598981 0.99212572 H 20.45088 c -5.21928,0 -6.552209,-0.005611 -6.56109,-0.0276214 -0.0089,-0.0220971 -0.01149,-0.0220971 -0.01289,0 -0.0014,0.0220347 -1.405103,0.0276214 -6.9402296,0.0276214 h -6.93848524 z"
     id="path964"
     inkscape:connector-curvature="0" /></svg>